<svg xmlns="http://www.w3.org/2000/svg" width="16" height="14" viewBox="0 0 16 14">
  <path id="bars" d="M.571,62.571H15.429A.571.571,0,0,0,16,62V60.571A.571.571,0,0,0,15.429,60H.571A.571.571,0,0,0,0,60.571V62A.571.571,0,0,0,.571,62.571Zm0,5.714H15.429A.571.571,0,0,0,16,67.714V66.286a.571.571,0,0,0-.571-.571H.571A.571.571,0,0,0,0,66.286v1.429A.571.571,0,0,0,.571,68.286ZM.571,74H15.429A.571.571,0,0,0,16,73.429V72a.571.571,0,0,0-.571-.571H.571A.571.571,0,0,0,0,72v1.429A.571.571,0,0,0,.571,74Z" transform="translate(0 -60)" fill="#8a8f9c"/>
</svg>
