<svg xmlns="http://www.w3.org/2000/svg" width="14" height="16" viewBox="0 0 14 16">
  <path id="calendar-check" d="M12.5,2H11V.375A.375.375,0,0,0,10.625,0H9.375A.375.375,0,0,0,9,.375V2H5V.375A.375.375,0,0,0,4.625,0H3.375A.375.375,0,0,0,3,.375V2H1.5A1.5,1.5,0,0,0,0,3.5v11A1.5,1.5,0,0,0,1.5,16h11A1.5,1.5,0,0,0,14,14.5V3.5A1.5,1.5,0,0,0,12.5,2Zm-.187,12.5H1.688a.188.188,0,0,1-.187-.188V5h11v9.312a.187.187,0,0,1-.187.188ZM10.661,8.23,6.214,12.641a.375.375,0,0,1-.53,0L3.337,10.274a.375.375,0,0,1,0-.53l.71-.7a.375.375,0,0,1,.53,0L5.958,10.43,9.429,6.987a.375.375,0,0,1,.53,0l.7.71a.375.375,0,0,1,0,.53Z" fill="#8a8f9c"/>
</svg>
