<svg xmlns="http://www.w3.org/2000/svg" width="13.998" height="16" viewBox="0 0 13.998 16">
  <path id="receipt" d="M10.749,9.006H3.25a.251.251,0,0,0-.25.25v1a.251.251,0,0,0,.25.25h7.5a.251.251,0,0,0,.25-.25v-1A.251.251,0,0,0,10.749,9.006ZM12.523.186l-1.359.978L9.958.3A1.5,1.5,0,0,0,8.205.3L7,1.164,5.793.3A1.5,1.5,0,0,0,4.04.3l-1.206.869L1.475.186A.93.93,0,0,0,0,.942V15.074a.932.932,0,0,0,1.475.756l1.359-.981,1.206.869a1.5,1.5,0,0,0,1.753,0L7,14.849l1.206.869a1.5,1.5,0,0,0,1.753,0l1.206-.869,1.359.978A.93.93,0,0,0,14,15.074V.942A.931.931,0,0,0,12.523.186ZM12.5,13.959,11.164,13,9.08,14.5,7,13,4.912,14.5,2.828,13,1.5,13.959V2.054l1.334.959,2.084-1.5L7,3.013l2.084-1.5,2.084,1.5L12.5,2.054Zm-1.75-8.452H3.25a.251.251,0,0,0-.25.25v1a.251.251,0,0,0,.25.25h7.5a.251.251,0,0,0,.25-.25v-1A.251.251,0,0,0,10.749,5.507Z" transform="translate(0 -0.008)" fill="#8a8f9c"/>
</svg>
