<svg xmlns="http://www.w3.org/2000/svg" width="17.498" height="14" viewBox="0 0 17.498 14">
  <path id="user-cog" d="M9.305,12.688H1.313v-.7A2.367,2.367,0,0,1,3.675,9.625a10.706,10.706,0,0,0,2.45.438,6.781,6.781,0,0,0,2.19-.394,5.015,5.015,0,0,1,.167-1.345,15.788,15.788,0,0,1-2.357.427c-1.288,0-1.662-.437-2.45-.437A3.676,3.676,0,0,0,0,11.988v.7A1.313,1.313,0,0,0,1.313,14h9.352A5.259,5.259,0,0,1,9.305,12.688ZM6.125,7.875A3.938,3.938,0,1,0,2.188,3.938,3.939,3.939,0,0,0,6.125,7.875Zm0-6.562A2.625,2.625,0,1,1,3.5,3.938,2.629,2.629,0,0,1,6.125,1.313Zm10.568,8.895a3.208,3.208,0,0,0,0-1.165l.705-.407a.2.2,0,0,0,.09-.232,4.1,4.1,0,0,0-.908-1.57.2.2,0,0,0-.246-.038L15.63,7.2a3.21,3.21,0,0,0-1.009-.582V5.805a.2.2,0,0,0-.156-.194,4.126,4.126,0,0,0-1.81,0,.2.2,0,0,0-.156.194V6.62A3.21,3.21,0,0,0,11.49,7.2l-.705-.407a.2.2,0,0,0-.246.038A4.1,4.1,0,0,0,9.63,8.4a.2.2,0,0,0,.09.232l.705.407a3.208,3.208,0,0,0,0,1.165l-.705.407a.2.2,0,0,0-.09.232,4.124,4.124,0,0,0,.908,1.57.2.2,0,0,0,.246.038l.705-.407a3.21,3.21,0,0,0,1.009.582v.815a.2.2,0,0,0,.156.194,4.126,4.126,0,0,0,1.81,0,.2.2,0,0,0,.156-.194V12.63a3.21,3.21,0,0,0,1.009-.582l.705.407a.2.2,0,0,0,.246-.038,4.1,4.1,0,0,0,.908-1.57.2.2,0,0,0-.09-.232Zm-3.131.744a1.326,1.326,0,1,1,1.326-1.326A1.327,1.327,0,0,1,13.563,10.951Z" fill="#8a8f9c"/>
</svg>
