<svg xmlns="http://www.w3.org/2000/svg" width="38" height="30.401" viewBox="0 0 38 30.401">
  <path id="user-edit" d="M21.31,25.728l-.4,3.622a.945.945,0,0,0,1.045,1.045l3.616-.4L33.755,21.8,29.5,17.546Zm16.275-9.761-2.25-2.25a1.423,1.423,0,0,0-2.007,0L30.846,16.2l4.263,4.257,2.482-2.482a1.428,1.428,0,0,0-.006-2.007ZM13.294,17.1A8.547,8.547,0,0,0,21.85,8.544,8.643,8.643,0,0,0,13.306,0,8.547,8.547,0,0,0,4.75,8.556,8.643,8.643,0,0,0,13.294,17.1ZM13.033,2.856A5.7,5.7,0,1,1,7.606,8.283a5.7,5.7,0,0,1,5.427-5.427ZM7.98,20.9c.867,0,2.274.95,5.32.95,3.07,0,4.447-.95,5.32-.95a5.084,5.084,0,0,1,2.7.79l2.043-2.043a7.9,7.9,0,0,0-4.744-1.6c-1.7,0-2.523.95-5.32.95s-3.61-.95-5.32-.95A7.982,7.982,0,0,0,0,26.03v1.52A2.851,2.851,0,0,0,2.85,30.4H18.187a6.644,6.644,0,0,1,.053-2.85H2.85V26.03A5.139,5.139,0,0,1,7.98,20.9Z" transform="translate(0 0)" fill="#8a8f9c"/>
</svg>
